<svg xmlns="http://www.w3.org/2000/svg" viewBox="0 0 82.01 100.2">
  <defs>
    <style>.cls-1{fill: currentColor}</style>
  </defs>
  <title>Toggle Easter Egg Hero</title>
  <g id="Layer_2" data-name="Layer 2">
    <g id="Layer_1-2" data-name="Layer 1">
      <path class="cls-1" d="M10.82,87.17c11.55,12.45,27,13,30,13h.44c2.94,0,18.41-.58,30-13a38.92,38.92,0,0,0,5.16-7H5.66A39.41,39.41,0,0,0,10.82,87.17Z"/>
      <path class="cls-1" d="M27.41,42.93l13.35,9.29,14-8.93,13.5,9,11.89-7.85c-.73-2.55-1.6-4.93-2.48-7.26H4.35c-.92,2.45-1.84,5-2.59,7.67l11.29,7.46Z"/>
      <path class="cls-1" d="M58.09,6.85A28.57,28.57,0,0,0,47.49,1a23.83,23.83,0,0,0-6.26-1h-.44a23.72,23.72,0,0,0-6.26,1,28.5,28.5,0,0,0-10.6,5.89C17.15,12.54,12.05,20.72,8.77,27.13H73.24C70,20.72,64.86,12.54,58.09,6.85Z"/>
      <path class="cls-1" d="M82,57.42c0-.77,0-1.51-.06-2.24L68.24,64.23l-13.59-9-14.13,9L27.22,55,13,64.21l-13-8.56c0,.59,0,1.16,0,1.77A49.79,49.79,0,0,0,1.57,70.17H80.44A49.33,49.33,0,0,0,82,57.42Z"/>
    </g>
  </g>
</svg>
