<svg xmlns="http://www.w3.org/2000/svg" viewBox="0 0 17.94 13.03"><defs><style>.cls-1{fill: currentColor}</style></defs><title>Email Me</title><g id="Layer_2" data-name="Layer 2"><g id="Layer_1-2" data-name="Layer 1"><path class="cls-1" d="M7.82,7.77a1.65,1.65,0,0,0,2.3,0l5.37-5.1,2-1.91A2,2,0,0,0,15.94,0H2A2,2,0,0,0,.43.76l2,1.91Z"/><path class="cls-1" d="M0,1.72A2.64,2.64,0,0,0,0,2v9a2.11,2.11,0,0,0,0,.25L5.1,6.54Z"/><path class="cls-1" d="M17.92,11.29a2.11,2.11,0,0,0,0-.25V2a2.46,2.46,0,0,0,0-.28L12.84,6.54Z"/><path class="cls-1" d="M10.79,8.48a2.62,2.62,0,0,1-3.65,0L5.76,7.17l-5.39,5A2,2,0,0,0,2,13H15.94a2,2,0,0,0,1.62-.83l-5.38-5Z"/></g></g></svg>