<svg fill="currentColor" viewBox="0 0 64 64" xmlns="http://www.w3.org/2000/svg">
  <title>GitHub</title>
  <path d="M32,0C14.3,0,0,14.3,0,32c0,15.1,10.5,27.8,24.6,31.1c-0.7-0.2-1.5-0.4-2.2-0.6v-7.3c0,0-1.2,0.4-2.8,0.4
    c-4.5,0-6.3-4-6.8-6c-0.3-1.2-1-2.4-1.8-3.1c-0.9-0.8-1.4-0.8-1.4-1.1c0-0.6,0.8-0.6,1.2-0.6c2,0,3.5,2.1,4.2,3.2
    c1.7,2.7,3.6,3.2,4.6,3.2c1.2,0,2.2-0.2,3-0.5c0.3-2.3,1.4-4.4,3-5.9C18.1,43.3,12.8,39,12.8,32c0-3.6,1.4-6.9,3.9-9.6
    C16.4,21.7,16,20.3,16,18c0-1.5,0.1-3.4,0.8-5.2c0,0,4.6,0,8.9,4.1c2-0.6,4.1-0.9,6.3-0.9s4.3,0.3,6.3,0.9c4.3-4.1,8.9-4.1,8.9-4.1
    c0.7,1.8,0.8,3.7,0.8,5.2c0,2.5-0.3,3.9-0.5,4.6c2.3,2.6,3.7,5.9,3.7,9.4c0,7-5.3,11.3-12.8,12.8c2,1.8,3.2,4.3,3.2,7.2v10.5
    c-0.7,0.2-1.4,0.4-2.2,0.6C53.5,59.8,64,47.1,64,32C64,14.3,49.7,0,32,0z M34.2,63.9C33.5,64,32.8,64,32,64
    C32.8,64,33.5,64,34.2,63.9z M39.1,63.2c-1.4,0.3-2.9,0.6-4.4,0.7C36.2,63.8,37.7,63.5,39.1,63.2z M32,64c-0.8,0-1.5,0-2.2-0.1
    C30.5,64,31.2,64,32,64z M29.3,63.9c-1.5-0.1-3-0.4-4.4-0.7C26.3,63.5,27.8,63.8,29.3,63.9z"/>
</svg>
