<svg xmlns="http://www.w3.org/2000/svg" viewBox="0 0 26 26"><title>Github</title><g id="Layer_2" data-name="Layer 2"><g id="Main"><path class="project-button-main" stroke="none" d="M3.9,18.9H3.8l-.2-.2-.2-.2c0-.1,0-.2.1-.2h.8a1.4,1.4,0,0,1,.9.4l.8.8a2.7,2.7,0,0,0,1,1.1,1.5,1.5,0,0,0,1.1.4H9l.8-.3a3,3,0,0,1,.8-1.7l-1.7-.3-1.6-.7a5.3,5.3,0,0,1-1.4-1.1A15,15,0,0,1,5,14.9a9.8,9.8,0,0,1-.3-2.6A5.1,5.1,0,0,1,6,8.8a4.5,4.5,0,0,1,.1-3.4,2.8,2.8,0,0,1,1.5.2L9,6.3l.7.4A12.4,12.4,0,0,1,13,6.3a12.4,12.4,0,0,1,3.3.4l.6-.4,1.6-.7a1.7,1.7,0,0,1,1.3-.2A4.1,4.1,0,0,1,20,8.8a5.1,5.1,0,0,1,1.3,3.5,9.8,9.8,0,0,1-.3,2.6,10,10,0,0,1-.9,1.8l-1.4,1.1-1.6.7-1.7.3a3.3,3.3,0,0,1,.8,2.4v3.6a.5.5,0,0,0,.3.5.6.6,0,0,0,.6.1,13.4,13.4,0,0,1-8.1,0,.7.7,0,0,0,.6-.1.8.8,0,0,0,.2-.5V22.3H7.2a3,3,0,0,1-1.1-.6,1.8,1.8,0,0,1-.7-1l-.2-.4a3.5,3.5,0,0,0-.5-.8A1.7,1.7,0,0,0,3.9,18.9Z"/><path class="project-button-background" stroke="none" d="M3.6,18.6l.2.2h.1a1.7,1.7,0,0,1,.8.7,3.5,3.5,0,0,1,.5.8l.2.4a1.8,1.8,0,0,0,.7,1,3,3,0,0,0,1.1.6H9.8v2.5a.8.8,0,0,1-.2.5.7.7,0,0,1-.6.1H8.5l-.6-.2H7.7l-.5-.3-.7-.4A.9.9,0,0,1,6,24l-.3-.2-.9-.6A13.6,13.6,0,0,1,3.6,22c-.1,0-.1,0-.1-.1H3.3l-.4-.5c-.1-.1-.2-.2-.2-.3s-.2-.2-.2-.3A1.8,1.8,0,0,1,2,20v-.2H1.8l-.4-.6v-.2H1.3a2.5,2.5,0,0,0-.4-.7,2.4,2.4,0,0,0-.2-.8l-.2-.4c0-.1-.1-.3-.1-.4a.4.4,0,0,0-.1-.3,1.3,1.3,0,0,0-.1-.6h0A14.2,14.2,0,0,1,.8,8.4a16.3,16.3,0,0,1,.9-1.9l.5-.7a1.8,1.8,0,0,1,.5-.7,1.8,1.8,0,0,1,.5-.7h0l.5-.5a.1.1,0,0,1,.1-.1h.1l.5-.5.5-.4.8-.5.5-.4c.2-.1.4-.3.6-.3A13,13,0,0,1,12.4,0H15a21.3,21.3,0,0,1,3.4,1.1,3.4,3.4,0,0,1,1.2.6A10.8,10.8,0,0,1,22,3.6l.5.5.4.5a6.1,6.1,0,0,1,1.2,1.6l.3.5a4.1,4.1,0,0,1,.5.9A12.1,12.1,0,0,1,25.4,9a.4.4,0,0,1,.1.3.8.8,0,0,1,.1.4,2.9,2.9,0,0,1,.2.9.8.8,0,0,1,.1.4c0,.4.1.7.1,1.1v1.4a4.9,4.9,0,0,1-.1,1.2v.6a5,5,0,0,1-.2,1.2c0,.1-.1.2-.1.3l-.2.5-.3,1-.3.5c-.1.1-.1.3-.2.4l-.2.3c0,.1,0,.1-.1.1l-.3.6c0,.1-.1.1-.1.2l-.3.4a9.3,9.3,0,0,1-1.3,1.5l-.6.6-.8.6-.5.4-.5.3-1,.5-.5.2-.3.2-.6.2h-.3a.6.6,0,0,1-.6-.1.5.5,0,0,1-.3-.5V21.2a3.3,3.3,0,0,0-.8-2.4l1.7-.3,1.6-.7,1.4-1.1a10,10,0,0,0,.9-1.8,9.8,9.8,0,0,0,.3-2.6A5.1,5.1,0,0,0,20,8.8a4.1,4.1,0,0,0-.2-3.4,1.7,1.7,0,0,0-1.3.2l-1.6.7-.6.4A12.4,12.4,0,0,0,13,6.3a12.4,12.4,0,0,0-3.3.4L9,6.3,7.6,5.6a2.8,2.8,0,0,0-1.5-.2A4.5,4.5,0,0,0,6,8.8a5.1,5.1,0,0,0-1.3,3.5A9.8,9.8,0,0,0,5,14.9a15,15,0,0,0,.9,1.8,5.3,5.3,0,0,0,1.4,1.1l1.6.7,1.7.3a3,3,0,0,0-.8,1.7l-.8.3H8.1A1.5,1.5,0,0,1,7,20.5a2.7,2.7,0,0,1-1-1.1l-.8-.8a1.4,1.4,0,0,0-.9-.4H3.5c-.1,0-.1.1-.1.2Z"/></g></g></svg>