<svg xmlns="http://www.w3.org/2000/svg" viewBox="0 0 26.1 26.1"><title>Live Demo</title><g id="Layer_2" data-name="Layer 2"><g id="Main"><circle class="project-button-background" cx="13" cy="13" r="13"/><path class="project-button-main" d="M15.4,10.6a5.1,5.1,0,0,1,0,7.3h0l-2.2,2.3a5.2,5.2,0,0,1-7.3,0,5,5,0,0,1,0-7.3l1.2-1.2c.4-.4.9-.2.9.3a11.6,11.6,0,0,0,.4,1.8.7.7,0,0,1-.2.6l-.4.4a2.4,2.4,0,0,0,0,3.5,2.4,2.4,0,0,0,3.4,0L13.5,16a2.3,2.3,0,0,0,0-3.4q-.1-.3-.3-.3a.5.5,0,0,1-.3-.5,1.4,1.4,0,0,1,.4-1l.7-.7a.5.5,0,0,1,.7,0,1.8,1.8,0,0,1,.7.5Zm4.8-4.7a5,5,0,0,0-7.3,0L10.6,8.1h0a5.2,5.2,0,0,0,0,7.3l.7.6a.6.6,0,0,0,.7,0l.7-.8a1,1,0,0,0,.4-1,.4.4,0,0,0-.2-.4l-.3-.3a2.3,2.3,0,0,1,0-3.4l2.2-2.3a2.4,2.4,0,0,1,3.5,0,2.5,2.5,0,0,1,0,3.5l-.5.4a.6.6,0,0,0-.1.6,4.8,4.8,0,0,1,.3,1.8c0,.4.6.6,1,.3l1.2-1.2a5.2,5.2,0,0,0,0-7.3Z"/></g></g></svg>