<?xml version="1.0" encoding="utf-8"?>
<!-- Generator: Adobe Illustrator 23.0.2, SVG Export Plug-In . SVG Version: 6.00 Build 0)  -->
<svg version="1.1" id="Layer_1" xmlns="http://www.w3.org/2000/svg" xmlns:xlink="http://www.w3.org/1999/xlink" x="0px" y="0px"
	 viewBox="0 0 50 50" style="enable-background:new 0 0 50 50;" xml:space="preserve">
<style type="text/css">
	.st0{fill: currentColor}
</style>
<path class="st0" d="M44,0H6C2.7,0,0,2.7,0,6V44c0,3.3,2.7,6,6,6H44c3.3,0,6-2.7,6-6V6C50,2.7,47.3,0,44,0z M15.5,19v22.6H8.3V19
	H15.5z M8.3,12.5c0-1.7,1.4-2.9,3.6-2.9s3.5,1.3,3.6,2.9c0,1.7-1.3,3-3.6,3C9.8,15.5,8.3,14.1,8.3,12.5z M41.7,41.7h-7.1
	c0,0,0-11,0-11.9c0-2.4-1.2-4.8-4.2-4.8h-0.1c-2.9,0-4.1,2.5-4.1,4.8c0,1.1,0,11.9,0,11.9H19V19h7.1v3c0,0,2.3-3,6.9-3
	c4.7,0,8.6,3.3,8.6,9.8V41.7z"/>
</svg>
