<svg fill="currentColor" xmlns="http://www.w3.org/2000/svg" viewBox="0 0 50 50">
  <title>Josh's LinkedIn</title>
  <path d="M25,0C11.2,0,0,11.2,0,25s11.2,25,25,25s25-11.2,25-25S38.8,0,25,0z M17.7,37.8h-6.1V19.5h6.1V37.8z M14.7,17c-2.1,0-3.4-1.4-3.4-3.2c0-1.8,1.4-3.2,3.4-3.2s3.4,1.4,3.4,3.2C18.1,15.6,16.8,17,14.7,17z M39.7,37.8h-6.1V28c0-2.5-0.9-4.1-3.1-4.1c-1.7,0-2.7,1.1-3.1,2.2c-0.2,0.4-0.2,0.9-0.2,1.5v10.2h-6.1c0,0,0.1-16.6,0-18.3h6.1v2.6c0.8-1.3,2.3-3,5.5-3c4,0,7,2.6,7,8.2C39.7,27.3,39.7,37.8,39.7,37.8z"/>
</svg>
