<svg xmlns="http://www.w3.org/2000/svg" viewBox="0 0 774.2 773.3"><title>Loading</title><g id="Layer_2" data-name="Layer 2"><g id="Layer_1-2" data-name="Layer 1"><path d="M372.4.8c-11.1,3.6-17.5,10-20.6,20.4-1.8,5.9-2.1,19.5-2.1,90.5,0,94-.1,92.8,9.5,102.4,12.9,12.8,42.9,12.8,55.8,0,9.5-9.6,9.4-8.4,9.4-102.4,0-91-.1-92.6-7.5-101.4S404,.5,389.1.1c-7.3-.2-14.8.1-16.7.7M124.8,99.6c-7.9,3.6-19.6,15-23.7,23.1a30.5,30.5,0,0,0-.5,26.2c3.6,8.3,119.8,124.9,129,129.5,13,6.7,26.3,3.4,39.7-9.7s16.7-26.9,9.9-39.9C274.6,219.6,158,103.4,149.8,99.7s-17.6-3.5-25-.1m504.9.8c-6.1,2.8-16.6,12.7-66.7,62.9-46,46.2-60.1,61.1-62.4,66a30.8,30.8,0,0,0,.1,25.9c3.5,7.5,15,19.3,22.8,23.3s19.4,4.1,27.6-.1S674.9,158.6,679.3,150.3s4.2-19.8.1-27.6-14.7-18.2-22.7-22.3-17.2-4.5-27,0M22.1,350.9C7.3,355.5,0,367.3,0,386.2s7.3,31,22,35.4c5.9,1.7,19.1,2,90.5,2,74.4,0,84.4-.2,90.5-2.2a30.1,30.1,0,0,0,19.2-19.2c4.3-13.3,2.1-32.1-4.7-41.4-1.5-2-5.8-5.3-9.6-7.4l-6.8-3.8-86.7-.3c-69.7-.2-87.7.1-92.3,1.6m552.2-.7c-6.1,1.5-14.6,6.6-17.6,10.7-6.8,9.2-9,28-4.7,41.3a30.1,30.1,0,0,0,19.2,19.2c6.1,2,16.1,2.2,90.5,2.2,71.4,0,84.6-.3,90.5-2,14.8-4.4,22-16,22-35.4s-7.3-30.8-22.6-35.4c-5.1-1.5-21.3-1.8-89.7-1.7-45.9.1-85.3.6-87.6,1.1M229.8,500.4c-6.2,2.8-16.7,12.7-66.8,62.9-46.1,46.2-60.1,61.1-62.4,66a30.8,30.8,0,0,0,.1,25.9c3.5,7.5,15,19.3,22.8,23.3s19.5,4.1,27.6-.1S274.9,558.6,279.2,550.3s4.3-19.8.2-27.6-14.7-18.2-22.7-22.3-17.2-4.5-26.9,0m295-.8c-7.9,3.6-19.6,15-23.6,23.1a29.5,29.5,0,0,0-.6,26.2c3.7,8.3,119.8,124.9,129,129.5,13,6.7,26.3,3.4,39.6-9.7s16.8-26.9,10.1-39.9c-4.7-9.2-121.3-125.4-129.5-129.1s-17.6-3.5-25-.1M374.3,550.1c-6.2,1.6-14.6,6.8-17.6,10.8-6.9,9.3-7,9.9-7,99.8,0,71.6.3,84.8,2.1,90.7,4.4,14.7,16,21.9,35.3,21.9s30.9-7.2,35.3-21.9c3.1-10.6,3.1-171.4-.1-180.6s-6.5-13-14.2-17.2c-5.5-3-8.7-3.8-18.1-4.1-6.4-.3-13.4,0-15.7.6" fill-rule="evenodd" fill="currentColor" /></g></g></svg>