<?xml version="1.0" encoding="utf-8"?>
<svg version="1.1" id="Layer_1" xmlns="http://www.w3.org/2000/svg" xmlns:xlink="http://www.w3.org/1999/xlink" x="0px" y="0px"
	 viewBox="0 0 800 800" style="enable-background:new 0 0 800 800;" xml:space="preserve">
<style type="text/css">
	.st0{fill-rule:evenodd;clip-rule:evenodd;}
</style>
<title>Toggle Light Mode</title>
<circle class="st0" cx="400" cy="400.1" r="200"/>
<path class="st0" d="M150,400c0-27.6-22.4-50-50-50H50c-27.6,0-50,22.4-50,50s22.4,50,50,50h50C127.7,450,150,427.6,150,400z"/>
<path class="st0" d="M152.6,576.7l-35.4,35.4c-19.5,19.5-19.5,51.2,0,70.7c19.5,19.5,51.2,19.5,70.7,0l35.4-35.4
	c19.5-19.5,19.5-51.2,0-70.7C203.7,557.2,172.1,557.2,152.6,576.7z"/>
<path class="st0" d="M400,650c-27.6,0-50,22.4-50,50v50c0,27.6,22.4,50,50,50c27.6,0,50-22.4,50-50l-0.1-50
	C450,672.3,427.6,650,400,650z"/>
<path class="st0" d="M647.5,576.8c-19.5-19.6-51.1-19.6-70.7-0.1s-19.5,51.2,0,70.7l35.4,35.3c19.5,19.6,51.2,19.5,70.7,0
	c19.5-19.5,19.6-51.1,0-70.7L647.5,576.8z"/>
<path class="st0" d="M750.1,350l-50.1,0.1c-27.5-0.1-49.9,22.3-49.9,49.9c-0.1,27.6,22.4,50,49.9,50h50c27.7,0.1,50-22.4,50-50
	C800,372.4,777.7,350,750.1,350z"/>
<path class="st0" d="M647.5,223.2l35.4-35.4c19.7-19.6,19.5-51.2,0-70.7c-19.5-19.6-51.1-19.6-70.7,0l-35.4,35.5
	c-19.5,19.4-19.5,51.1,0,70.6C596.2,242.8,628,242.7,647.5,223.2z"/>
<path class="st0" d="M400,149.9c27.6,0.2,50-22.4,50-49.9V50c0-27.7-22.4-50-50-50c-27.6-0.1-50,22.3-50,49.9l0.1,50.1
	C350,127.6,372.4,149.9,400,149.9z"/>
<path class="st0" d="M152.6,223.2c19.4,19.5,51,19.5,70.6-0.1c19.7-19.4,19.6-51.1,0.1-70.6L188,117.2c-19.6-19.6-51.2-19.5-70.7,0
	c-19.7,19.5-19.7,51.1-0.2,70.7L152.6,223.2z"/>
</svg>
