<?xml version="1.0" encoding="utf-8"?>
<!-- Generator: Adobe Illustrator 23.0.2, SVG Export Plug-In . SVG Version: 6.00 Build 0)  -->
<svg version="1.1" id="Layer_1" xmlns="http://www.w3.org/2000/svg" xmlns:xlink="http://www.w3.org/1999/xlink" x="0px" y="0px"
	 viewBox="0 0 44.6 44.6" style="enable-background:new 0 0 44.6 44.6;" xml:space="preserve">
<style type="text/css">
	.st0{fill:#25252C;}
	.st1{fill:#F2635B;}
</style>
<title>Asset 56</title>
<g>
	<g id="Main">
		<path class="st0" d="M3.1,37.3H1.3L-0.1,37v-4.8L1,32.4h1.2c0.6,0.1,1.2,0,1.7-0.3c0.4-0.4,0.7-0.9,0.9-1.4C4.9,30,5,29.2,5,28.4
			V7.3h6.2v20.6c0.1,1.9-0.2,3.8-1,5.5c-0.6,1.3-1.6,2.4-2.9,3C6,37,4.5,37.4,3.1,37.3z"/>
		<path class="st0" d="M24.3,15.8l4-8.5h6.6l-7.5,13.9v8.9h-6.2v-8.7L13.7,7.3h6.7L24.3,15.8z"/>
		<path class="st1" d="M36.6,26.9c-0.1-1.1,0.3-2.2,1.2-2.9c0.9-0.6,1.9-0.9,3-0.8c1-0.1,2,0.2,2.8,0.8c0.9,0.7,1.3,1.8,1.2,2.9
			c0.1,1.1-0.4,2.2-1.2,2.9c-0.8,0.5-1.8,0.8-2.8,0.8c-1.1,0-2.1-0.3-3-0.8C36.9,29.1,36.5,28,36.6,26.9z"/>
	</g>
</g>
</svg>
