<svg viewBox="0 0 67.33 40.26" xmlns="http://www.w3.org/2000/svg" fill="currentColor">
  <defs>
    <style>.cls-1{fill:currentColor;}</style>
  </defs>
  <title>Amazon Web Services</title>
  <g id="Layer_2" data-name="Layer 2">
    <g id="Main">
      <path class="cls-1" d="M19,14.62a6.61,6.61,0,0,0,.25,2,11,11,0,0,0,.72,1.62,1,1,0,0,1,.15.51.89.89,0,0,1-.42.68l-1.41.94a1.13,1.13,0,0,1-.59.2,1,1,0,0,1-.67-.32,6.33,6.33,0,0,1-.8-1c-.25-.43-.48-.87-.7-1.32A8.26,8.26,0,0,1,8.92,21a6.16,6.16,0,0,1-4.48-1.61,5.75,5.75,0,0,1-1.65-4.3,5.77,5.77,0,0,1,2-4.61,8.13,8.13,0,0,1,5.49-1.75,18,18,0,0,1,2.37.18c.83.11,1.68.29,2.58.49V7.73A5,5,0,0,0,14.2,4.14a5.14,5.14,0,0,0-3.64-1,10.19,10.19,0,0,0-2.42.29,16.62,16.62,0,0,0-2.42.77,7.47,7.47,0,0,1-.79.29,1.35,1.35,0,0,1-.35.06c-.32,0-.48-.22-.48-.69V2.73A1.4,1.4,0,0,1,4.26,2a1.61,1.61,0,0,1,.63-.47,12.47,12.47,0,0,1,2.82-1A13.73,13.73,0,0,1,11.2,0c2.67,0,4.62.61,5.87,1.82s1.86,3,1.86,5.51v7.25ZM9.88,18a7.27,7.27,0,0,0,2.31-.41,5.09,5.09,0,0,0,2.13-1.43,3.73,3.73,0,0,0,.76-1.43,8.32,8.32,0,0,0,.22-1.95v-.94a17.79,17.79,0,0,0-2.06-.38,16.46,16.46,0,0,0-2.1-.14,5.14,5.14,0,0,0-3.34.9,3.1,3.1,0,0,0-1.09,2.57,3.13,3.13,0,0,0,.82,2.38A3.11,3.11,0,0,0,9.88,18Zm18,2.42a1.25,1.25,0,0,1-.86-.23,1.86,1.86,0,0,1-.47-.87L21.28,2a3.91,3.91,0,0,1-.2-.9.49.49,0,0,1,.54-.56h2.19a1.25,1.25,0,0,1,.87.22,1.82,1.82,0,0,1,.45.88L28.9,16.5,32.39,1.68A1.59,1.59,0,0,1,32.81.8a1.57,1.57,0,0,1,.9-.22H35.5a1.4,1.4,0,0,1,.9.22,1.6,1.6,0,0,1,.42.88l3.54,15,3.87-15A2,2,0,0,1,44.68.8a1.49,1.49,0,0,1,.87-.22h2.09a.5.5,0,0,1,.56.56,2.8,2.8,0,0,1-.05.36,2.75,2.75,0,0,1-.16.56L42.6,19.37a1.71,1.71,0,0,1-.47.87,1.43,1.43,0,0,1-.85.22H39.35a1.37,1.37,0,0,1-.9-.22,1.67,1.67,0,0,1-.42-.9L34.56,4.9,31.11,19.32a1.83,1.83,0,0,1-.42.9,1.45,1.45,0,0,1-.9.22Zm28.77.6a15.28,15.28,0,0,1-3.45-.4,10.21,10.21,0,0,1-2.58-.9,1.54,1.54,0,0,1-.69-.63,1.47,1.47,0,0,1-.13-.62V17.35c0-.46.18-.69.51-.69a1.12,1.12,0,0,1,.4.07c.14,0,.34.13.56.22a11.89,11.89,0,0,0,2.47.79,14.1,14.1,0,0,0,2.66.26,6,6,0,0,0,3.27-.74,2.41,2.41,0,0,0,1.17-2.12,2.23,2.23,0,0,0-.61-1.57A5.61,5.61,0,0,0,58,12.41l-3.25-1a6.87,6.87,0,0,1-3.58-2.29A5.28,5.28,0,0,1,50,5.87a5,5,0,0,1,.6-2.49,5.79,5.79,0,0,1,1.62-1.83A7,7,0,0,1,54.56.38,9.66,9.66,0,0,1,57.38,0a10.88,10.88,0,0,1,1.5.09c.51.07,1,.16,1.45.25s.88.22,1.28.35a4.81,4.81,0,0,1,.94.41,1.82,1.82,0,0,1,.67.56,1.14,1.14,0,0,1,.2.74V3.45c0,.47-.18.72-.51.72a2.49,2.49,0,0,1-.85-.27A10.29,10.29,0,0,0,57.76,3a5.72,5.72,0,0,0-3,.63,2.15,2.15,0,0,0-1.05,2,2.09,2.09,0,0,0,.67,1.59,6.72,6.72,0,0,0,2.46,1.24l3.18,1a6.89,6.89,0,0,1,3.47,2.15,5,5,0,0,1,1,3.14A5.74,5.74,0,0,1,64,17.35a6,6,0,0,1-1.63,2,7.29,7.29,0,0,1-2.49,1.25A10.77,10.77,0,0,1,56.64,21.05Zm4.23,10.88C53.5,37.38,42.8,40.26,33.6,40.26A49.34,49.34,0,0,1,.3,27.56c-.7-.62-.07-1.47.76-1a67.14,67.14,0,0,0,33.32,8.85,66.62,66.62,0,0,0,25.42-5.2C61,29.67,62.08,31,60.87,31.93Zm3.07-3.49c-.94-1.21-6.23-.58-8.62-.29-.72.09-.83-.54-.18-1,4.21-3,11.13-2.11,11.93-1.12S66.85,34,62.91,37.26c-.61.52-1.19.25-.92-.42C62.89,34.62,64.88,29.63,63.94,28.44Z"/>
    </g>
  </g>
</svg>