<svg viewBox="0 0 90.91 82.56" xmlns="http://www.w3.org/2000/svg" fill="currentColor">
  <defs>
    <style>.cls-1{fill:currentColor;}</style>
  </defs>
  <title>Backend</title>
  <g id="Layer_2" data-name="Layer 2">
    <g id="Main">
      <path stroke="none" class="cls-1" d="M77.93,33.78l13-7.51L45.46,0,0,26.27l13,7.51L0,41.28l13,7.51L0,56.29,45.46,82.56,90.91,56.29l-13-7.5,13-7.51ZM5.08,26.27,45.46,2.93,85.83,26.27l-10.44,6-2.54,1.47-10.45,6-16.94,9.8-16.95-9.8-10.45-6-2.53-1.47ZM75.39,47.32,45.46,64.62,15.53,47.32l-10.45-6,10.45-6,10.44,6L45.46,52.54,64.94,41.28l10.45-6,10.44,6Z"/>
    </g>
  </g>
</svg>