<svg viewBox="0 0 66.01 50.04" xmlns="http://www.w3.org/2000/svg" fill="currentColor">
  <defs>
    <style>.cls-1{fill:currentColor;}</style>
  </defs>
  <title>CI/CD</title>
  <g id="Layer_2" data-name="Layer 2">
    <g id="Main">
      <path stroke="none" class="cls-1" d="M47.66,6.54V1.39a1.38,1.38,0,0,0-2.36-1L36.19,9.52a1.38,1.38,0,0,0,0,2l9.11,9.11a1.38,1.38,0,0,0,2.36-1V14.46A10.56,10.56,0,1,1,37,25a18.49,18.49,0,1,0-18.7,18.47v5.16a1.38,1.38,0,0,0,2.36,1l9.11-9.11a1.39,1.39,0,0,0,0-2l-9.11-9.11a1.38,1.38,0,0,0-2.36,1v5.14A10.56,10.56,0,1,1,29.05,25,18.48,18.48,0,1,0,47.66,6.54Z"/>
    </g>
  </g>
</svg>