<svg viewBox="0 0 63.61 56.77" xmlns="http://www.w3.org/2000/svg" fill="currentColor">
  <defs>
    <style>.cls-1{fill:currentColor;}</style>
  </defs>
  <title>Expo</title>
  <g id="Layer_2" data-name="Layer 2">
    <g id="Main">
      <path stroke="none" class="cls-1" d="M30.14,20.87A1.72,1.72,0,0,1,31.69,20a2,2,0,0,1,1.75.86c6.78,9.23,20.84,33.58,22.13,34.91,1.93,2,4.57.74,6.1-1.49a8.87,8.87,0,0,0,1.94-5.38c0-1.12-21.89-41.5-24.1-44.86S36.7,0,33.07,0H30.36c-3.62,0-4.14.82-6.26,4.05S0,47.8,0,48.92a8.87,8.87,0,0,0,1.93,5.37c1.53,2.23,4.18,3.46,6.1,1.49,1.3-1.33,15.34-25.68,22.11-34.91Z"/>
    </g>
  </g>
</svg>