<svg viewBox="0 0 61.68 37.03" xmlns="http://www.w3.org/2000/svg" fill="currentColor">
  <defs>
    <style>.cls-1{fill:currentColor;}</style>
  </defs>
  <title>Express</title>
  <g id="Layer_2" data-name="Layer 2">
    <g id="Main">
      <path class="cls-1" d="M30.9,36.41h1.69a3.82,3.82,0,0,0,3-1.51l10.66-14L57,34.9a3.82,3.82,0,0,0,3,1.51h1.68L48.08,18.52l13-17.1H59.39a3.8,3.8,0,0,0-3,1.52L46.29,16.16l-10-13.23a3.84,3.84,0,0,0-3.05-1.51H31.51l13,17.1Z"/>
      <path class="cls-1" d="M31.34,19.94V15.67A15.68,15.68,0,0,0,13.06.21,15.92,15.92,0,0,0,0,16.07v4.07C0,29.48,6.8,36.93,15.48,37A15.66,15.66,0,0,0,30.73,25.64H29.27a2.29,2.29,0,0,0-2.07,1.3,12.84,12.84,0,0,1-14.57,6.9A13,13,0,0,1,2.85,21.06V19.94ZM2.85,16.68c0-6.71,4-12.19,9.86-13.5A12.84,12.84,0,0,1,28.49,15.67v1.42H2.85Z"/>
    </g>
  </g>
</svg>