<svg viewBox="0 0 90.92 82.56" xmlns="http://www.w3.org/2000/svg" fill="currentColor">
  <defs>
    <style>.cls-1{fill:currentColor;}</style>
  </defs>
  <title>Frontend</title>
  <g id="Layer_2" data-name="Layer 2">
    <g id="Main">
      <path class="cls-1" d="M2.54,56.29l4.37-2.52L2.55,56.29,21.28,67.12Zm13-22.51-13,7.5,13,7.51-13-7.51,13-7.5-13-7.51L45.46,1.47l42.92,24.8L45.46,51.08Zm72.85,7.5-13,7.51Z"/>
      <path class="cls-1" d="M45.46,2.94,85.84,26.27l-9.18,5.31-1.27.73-1.2.69-1.34.78h0L45.46,49.61,18.07,33.78l-3.81-2.2L5.09,26.27,45.46,2.94m0-2.94L0,26.27l13,7.51L0,41.28l13,7.51L0,56.29,45.46,82.56,90.92,56.29l-13-7.5,13-7.51-13-7.5,13-7.51L45.46,0Zm0,52.54,29.93-17.3,10.45,6-10.45,6-2.53,1.47L45.46,64.62,18.07,48.79l-2.54-1.47-10.44-6,10.44-6L45.46,52.54Zm0,15,29.93-17.3,10.45,6L45.46,79.63,5.09,56.29l10.44-6,29.93,17.3Z"/>
    </g>
  </g>
</svg>