<svg viewBox="0 0 139.77 131.56" xmlns="http://www.w3.org/2000/svg" fill="currentColor">
  <defs>
    <style>.cls-1{fill:currentColor;}</style>
  </defs>
  <title>Fullstack</title>
  <g id="Layer_2" data-name="Layer 2">
    <g id="Main">
      <polygon class="cls-1" points="69.89 110.21 18.47 80.49 0 91.17 69.89 131.56 139.77 91.16 121.31 80.49 69.89 110.21"/>
      <polygon class="cls-1" points="102.85 65.78 99.35 67.8 69.89 84.83 40.43 67.8 36.93 65.78 18.46 55.11 0 65.78 18.47 76.45 21.96 78.47 69.89 106.17 117.81 78.47 121.31 76.45 139.77 65.78 121.31 55.11 102.85 65.78"/>
      <polygon class="cls-1" points="21.96 53.09 40.43 63.76 43.93 65.78 69.89 80.78 95.85 65.78 99.35 63.75 117.81 53.09 121.31 51.06 139.77 40.39 69.89 0 0 40.4 18.46 51.07 21.96 53.09"/>
    </g>
  </g>
</svg>