<svg viewBox="0 0 59.16 57.69" xmlns="http://www.w3.org/2000/svg" fill="currentColor">
  <defs>
    <style>.cls-1{fill:currentColor;}</style>
  </defs>
  <title>GitHub</title>
  <g id="Layer_2" data-name="Layer 2">
    <g id="Main">
      <path class="cls-1" d="M29.58,0a29.58,29.58,0,0,0-9.36,57.64c1.48.28,2-.63,2-1.42s0-2.56,0-5c-8.23,1.79-10-4-10-4C10.9,43.81,9,42.9,9,42.9c-2.67-1.84.21-1.8.21-1.8a6.21,6.21,0,0,1,4.53,3c2.64,4.52,6.93,3.21,8.62,2.46a6.24,6.24,0,0,1,1.87-4C17.61,41.91,10.71,39.37,10.71,28a11.38,11.38,0,0,1,3-7.93A10.54,10.54,0,0,1,14,12.27s2.48-.8,8.13,3a27.84,27.84,0,0,1,14.79,0c5.62-3.83,8.1-3,8.1-3a10.86,10.86,0,0,1,.3,7.83,11.46,11.46,0,0,1,3,7.93c0,11.37-6.92,13.87-13.5,14.6,1,.88,2,2.7,2,5.47,0,4,0,7.14,0,8.1,0,.77.52,1.7,2,1.4A29.54,29.54,0,0,0,29.58,0"/>
    </g>
  </g>
</svg>