<svg xmlns="http://www.w3.org/2000/svg" viewBox="0 0 51.1 51.1">
  <title>JavaScript</title>
  <path fill="currentColor" d="M48.8,0C48.8,0,48.8,0,48.8,0L2.4,0C1.1,0,0,1.1,0,2.4c0,0,0,0,0,0v46.3c0,1.3,1.1,2.4,2.4,2.4c0,0,0,0,0,0h46.3
    c1.3,0,2.4-1.1,2.4-2.4V2.4C51.1,1.1,50.1,0,48.8,0z M27,43.9c-0.8,1.5-2.2,2.5-3.9,3c-2.6,0.6-5,0.2-6.8-0.9
    c-1.2-0.7-2.2-1.9-2.8-3.2l3.9-2.4c0,0,0.1,0.2,0.3,0.4c0.5,0.8,0.9,1.4,1.8,1.8c0.8,0.3,2.6,0.4,3.3-1c0.4-0.7,0.3-3.2,0.3-5.8
    c0-4.1,0-8.2,0-12.4h4.8l0,0.1c0,4.4,0,8.8,0,13.2C27.8,39.5,28,41.9,27,43.9z M46.7,42.3C45,48,35.8,48.2,32.1,44.5
    c-0.8-0.9-1.3-1.3-1.7-2.4l3.9-2.2c1.1,1.6,2,2.5,3.7,2.8c2.3,0.3,4.7-0.5,4.2-3c-0.5-2-4.8-2.5-7.7-4.7c-2.9-2-3.6-6.8-1.2-9.5
    c0.8-1,2.2-1.8,3.6-2.1l1.5-0.2c2.9-0.1,4.7,0.7,6,2.2c0.4,0.4,0.7,0.8,1.2,1.7c-1.5,1-1.5,1-3.7,2.4c-0.5-1-1.2-1.7-2.1-1.9
    c-1.3-0.4-2.9,0-3.2,1.4c-0.1,0.4-0.1,0.8,0.1,1.5c0.5,1.2,2.3,1.7,3.8,2.4c4.5,1.8,6,3.8,6.4,6.1l-0.1-0.1
    C47.2,40.8,46.8,42.1,46.7,42.3z"/>
</svg>
