<svg viewBox="0 0 47.62 52.38" xmlns="http://www.w3.org/2000/svg" fill="currentColor">
  <defs>
    <style>.cls-1{fill:currentColor;}</style>
  </defs>
  <title>Jest Testing Library</title>
  <g id="Layer_2" data-name="Layer 2">
    <g id="Main">
      <path class="cls-1" d="M46.18,25.8a6.79,6.79,0,0,0-5.08-6.57L47.62,0H15.31l6.54,19.29a6.78,6.78,0,0,0-2,12.05,17.58,17.58,0,0,1-2.37,2.72,17.46,17.46,0,0,1-5.57,3.59A4.56,4.56,0,0,1,10,32.32,6.8,6.8,0,1,0,3.18,30.6c-.11.21-.21.43-.32.65A26.44,26.44,0,0,0,.25,38.37c-.88,5.3.56,9.57,4,12a11.17,11.17,0,0,0,6.42,2c4,0,8-2,12-4a44.61,44.61,0,0,1,8.51-3.51c1-.26,2.14-.41,3.29-.58a18.46,18.46,0,0,0,6.92-1.94,9.83,9.83,0,0,0,4.76-6.75,10,10,0,0,0-1-6.26,6.8,6.8,0,0,0,1-3.6Zm-3,0a3.82,3.82,0,1,1-7.64,0,3.88,3.88,0,0,1,1.45-3h0c.13-.09.26-.19.4-.27s0,0,0,0,.12-.08.19-.11h0l.21-.09.22-.09,0,0,.18-.06h.07l.21-.05h0l.23-.05h.06l.18,0h.72c.12,0,.24,0,.36.06a3.87,3.87,0,0,1,3,3.76ZM19.54,3H43.39L37.92,19.18a5.31,5.31,0,0,0-.68.2L31.48,7.63,25.7,19.3a5.4,5.4,0,0,0-.72-.16L19.54,3ZM30.38,24.48a6.71,6.71,0,0,0-2-3.64l3.13-6.34L34.64,21a6.82,6.82,0,0,0-1.89,3.51Zm-7.59-2.4L23,22h0l.18,0h1a.1.1,0,0,1,.07,0l.17,0h.06l.21.05h0a1.27,1.27,0,0,1,.18.06l.06,0a.47.47,0,0,1,.15.06h0l.19.08h0a.75.75,0,0,1,.2.1h0c.07,0,.13.08.19.11h0c.06,0,.11.08.16.11l0,0a4.23,4.23,0,0,1,.51.44h0a3.83,3.83,0,1,1-3.71-1.06ZM7.86,22A3.83,3.83,0,1,1,4,25.8,3.83,3.83,0,0,1,7.86,22ZM43.14,35.12a6.73,6.73,0,0,1-3.29,4.66A16.26,16.26,0,0,1,34,41.34c-1.2.15-2.4.37-3.58.63a46.8,46.8,0,0,0-9.13,3.75c-3.76,1.87-7.31,3.62-10.6,3.62A7.88,7.88,0,0,1,6,47.84c-3.33-2.3-3.17-6.62-2.77-9a23.23,23.23,0,0,1,2.35-6.28l.17-.35a5.14,5.14,0,0,0,1,.28,7.72,7.72,0,0,0,4.25,8.17l.57.31.62-.23a20.63,20.63,0,0,0,7.29-4.52,21,21,0,0,0,3.15-3.75,6.19,6.19,0,0,0,1.05.08,6.8,6.8,0,0,0,6.56-5.08h2.55a6.79,6.79,0,0,0,6.57,5.08,6.72,6.72,0,0,0,3.42-.94A6.84,6.84,0,0,1,43.14,35.12Z"/>
    </g>
  </g>
</svg>