<svg viewBox="0 0 61.76 59.5" xmlns="http://www.w3.org/2000/svg" fill="currentColor">
  <defs>
    <style>.cls-1{fill:currentColor;}</style>
  </defs>
  <title>jQuery</title>
  <g id="Layer_2" data-name="Layer 2">
    <g id="Main">
      <path stroke="none" class="cls-1" d="M60.27,42.88S52.59,63.6,26.15,58.77a10,10,0,0,1-1.22-.34l-.29-.08L23.46,58l-.13-.05c-.36-.12-.71-.26-1.06-.39L22,57.41,20.87,57l-.2-.09-1-.45-.25-.12-.14-.07-.61-.31-.47-.24-.85-.48L17.08,55c-.38-.22-.76-.45-1.13-.69l-.31-.21-.72-.47-.07-.06-.28-.19-.74-.53-.35-.27-.67-.52-.32-.26-.8-.67L11.54,51h0l-.87-.8L10.39,50l-.64-.62-.26-.26c-.27-.28-.53-.56-.79-.85l0,0v0c-.27-.29-.53-.59-.79-.89L7.65,47l-.57-.7L6.85,46l-.61-.81-.11-.15,0,0c-.23-.32-.45-.64-.67-1-.07-.09-.13-.2-.2-.3s-.31-.48-.46-.72l-.23-.38L4.15,42c-.07-.13-.14-.26-.22-.39s-.08-.14-.12-.22L3.62,41l-.31-.6C-.86,32.06-1.55,21.83,3.92,14L8.19,8.56C3.37,17.87,5.54,29.2,11.56,37.42l.67.89.21.26.58.72.21.25c.26.31.53.61.81.91l0,0c.26.29.53.57.8.84.08.09.17.17.25.25s.43.43.65.64l.25.24c.29.28.59.55.9.82l.09.08.86.72.3.24.69.54.34.25.76.55a2.4,2.4,0,0,0,.26.18c.26.19.53.37.8.54l.3.2,1.13.7.3.16.87.49.48.25.72.37.27.13.94.43.22.1c.37.16.74.32,1.11.46l.29.12,1,.38.16,0c.39.14.77.26,1.17.38l.3.1c.4.11.8.24,1.21.34C42.37,53.5,53.82,51.29,60.27,42.88ZM22,29.6a13.53,13.53,0,0,0,2,2.54c.28.32.58.62.88.92l.24.23c.29.29.59.57.9.85l0,0h0c.34.3.7.59,1.06.87l.24.19q.54.42,1.11.81l0,0,.5.34.24.16.83.5.11.07.73.4.25.14.51.26.08,0c.35.18.7.34,1.06.5l.23.09.87.36.37.13.8.28.36.11a9.45,9.45,0,0,0,1.15.34c20.42,3.38,25.13-12.34,25.13-12.34-4.24,6.12-12.47,9-21.26,6.76-.39-.1-.77-.21-1.15-.33L39,33.75c-.27-.08-.54-.18-.81-.28l-.36-.13c-.3-.11-.59-.23-.87-.35l-.24-.1c-.36-.16-.71-.32-1.06-.5-.18-.08-.36-.18-.54-.27L34.81,32l-.67-.38L34,31.49c-.28-.16-.55-.33-.82-.5l-.25-.16-.53-.36c-.38-.25-.74-.53-1.1-.8l-.25-.2a24.57,24.57,0,0,1-8.34-11.88,18.44,18.44,0,0,1,1.44-14.8L20.9,7.35c-4,5.69-3.74,13.31-.66,19.33A25.34,25.34,0,0,0,22,29.6Zm21.52-7,.51.18.22.07c.24.07.48.16.73.21,11.28,2.18,14.33-5.79,15.15-7-2.68,3.86-7.18,4.78-12.71,3.44a12.74,12.74,0,0,1-1.33-.41,15.67,15.67,0,0,1-1.59-.66,16.17,16.17,0,0,1-2.78-1.7C36.77,13,33.69,5.83,36.92,0L35.17,2.41a11.89,11.89,0,0,0-.94,11.48A16.19,16.19,0,0,0,43.51,22.56Z"/>
    </g>
  </g>
</svg>