<svg viewBox="0 0 35.11 45.64" xmlns="http://www.w3.org/2000/svg" fill="currentColor">
  <defs>
    <style>.cls-1{fill:currentColor;}</style>
  </defs>
  <title>Not Enough Skill Points</title>
  <g id="Layer_2" data-name="Layer 2">
    <g id="Main">
      <path stroke="none" class="cls-1" d="M8.28,4.17a15.31,15.31,0,0,0-3,9.71V15.8h5.26V13.88a10.31,10.31,0,0,1,1.81-6.42C13.47,6.05,15,5.27,17.55,5.27a6,6,0,0,1,5.21,2.24,10.19,10.19,0,0,1,1.81,6.37V15.8h5.27V13.88a15.2,15.2,0,0,0-3-9.66A11.79,11.79,0,0,0,17.55,0,11.64,11.64,0,0,0,8.28,4.17Zm-3,13.38A5.27,5.27,0,0,0,0,22.82V40.37a5.27,5.27,0,0,0,5.27,5.27H29.84a5.27,5.27,0,0,0,5.27-5.27V22.82a5.27,5.27,0,0,0-5.27-5.27ZM21.06,29.84a3.47,3.47,0,0,1-1.75,3v4a1.76,1.76,0,1,1-3.51,0v-4a3.5,3.5,0,1,1,5.26-3Z"/>
    </g>
  </g>
</svg>