<svg viewBox="0 0 64.28 72.48" xmlns="http://www.w3.org/2000/svg" fill="currentColor">
  <defs>
    <style>.cls-1{fill:currentColor;}</style>
  </defs>
  <title>Node.js</title>
  <g id="Layer_2" data-name="Layer 2">
    <g id="Main">
      <path stroke="none" class="cls-1" d="M32.13,72.48a5.56,5.56,0,0,1-2.78-.74l-8.87-5.25c-1.32-.74-.67-1-.24-1.16a17.53,17.53,0,0,0,4-1.82.68.68,0,0,1,.66.05l6.81,4a.91.91,0,0,0,.82,0L59.11,52.28a.87.87,0,0,0,.4-.72V20.9a.86.86,0,0,0-.41-.73L32.55,4.85a.85.85,0,0,0-.82,0L5.19,20.18a.83.83,0,0,0-.42.72V51.56a.81.81,0,0,0,.42.71l7.27,4.2c3.95,2,6.37-.35,6.37-2.69V23.52a.76.76,0,0,1,.77-.77H23a.77.77,0,0,1,.77.77V53.78c0,5.27-2.87,8.29-7.87,8.29-1.53,0-2.74,0-6.12-1.66l-7-4A5.59,5.59,0,0,1,0,51.56V20.9a5.61,5.61,0,0,1,2.78-4.84L29.35.71a5.82,5.82,0,0,1,5.58,0L61.49,16.06a5.61,5.61,0,0,1,2.79,4.84V51.56a5.61,5.61,0,0,1-2.79,4.84L34.93,71.74A5.58,5.58,0,0,1,32.13,72.48ZM53.58,42.26c0-5.74-3.88-7.27-12-8.34s-9.09-1.66-9.09-3.59c0-1.59.71-3.72,6.82-3.72,5.46,0,7.47,1.17,8.3,4.85a.76.76,0,0,0,.74.6h3.45a.78.78,0,0,0,.56-.24.76.76,0,0,0,.2-.59c-.53-6.34-4.74-9.29-13.25-9.29-7.57,0-12.09,3.19-12.09,8.55,0,5.82,4.49,7.42,11.76,8.14,8.7.85,9.37,2.12,9.37,3.83,0,3-2.38,4.24-8,4.24-7,0-8.57-1.77-9.09-5.26a.76.76,0,0,0-.76-.65H27a.77.77,0,0,0-.77.76c0,4.48,2.44,9.81,14.06,9.81C48.75,51.36,53.58,48.05,53.58,42.26Z"/>
    </g>
  </g>
</svg>