<svg viewBox="0 0 58.36 61.19" xmlns="http://www.w3.org/2000/svg" fill="currentColor">
  <defs>
    <style>.cls-1{fill:currentColor;}</style>
  </defs>
  <title>PostgreSQL</title>
  <g id="Layer_2" data-name="Layer 2">
    <g id="Main">
      <path class="cls-1" d="M44.39,44.36c0-.31,0-.57,0-.86s0-.67,0-.67l0,0c.23-4.09,1.35-5.67,2.56-6.56-.17-.24-.36-.49-.54-.73C46,34.84,45.31,34,44.63,33l-.12-.24c-.11-.25-.35-.69-.67-1.25-1.81-3.28-5.57-10.09-3-14.39,1.13-1.88,3.25-3,6.31-3.23C45.9,10.28,41.22,1.72,30.6,1.54h0C21.35,1.39,18.32,9.79,17.33,14.8a11.44,11.44,0,0,1,4.34-.93h.06c3.51,0,5.91,1.9,6.62,5.13a30.25,30.25,0,0,1,.75,6.36,20.49,20.49,0,0,1-1.6,8.27l-.23.62c-.19.52-.39,1-.58,1.44s-.36.86-.49,1.22a9.07,9.07,0,0,1,1.72.59l.23.1a1,1,0,0,1,.21.1,4.61,4.61,0,0,1,2.28,3.42c.09.76.08,6,.05,10.48a17.69,17.69,0,0,0,.9,4.81c.63,1.71,2.19,5,5.19,4.77a7.88,7.88,0,0,0,5.45-3.09A10.75,10.75,0,0,0,44.39,52V44.36Z"/>
      <path class="cls-1" d="M17,36.59a11.34,11.34,0,0,1-3.22-9.26,35.56,35.56,0,0,0,0-7.8c0-.55-.07-1-.07-1.18,0,0,0,0,0,0v0c.19-4.62,2-11.91,6.88-16.24A26.42,26.42,0,0,0,10.74,0C5,.22-.52,4.18,0,15.3.25,19.48,5,44.52,11.42,44.36a4.07,4.07,0,0,0,2.86-1.8c1.56-1.87,3.07-3.56,4.14-4.75A10.49,10.49,0,0,1,17,36.59Zm33.5-21.7a2.54,2.54,0,0,1,0,.63,27.39,27.39,0,0,1-.26,4.09c-.11,1-.23,2-.26,3a18.22,18.22,0,0,0,.25,3c.35,2.41.7,5.13-1.17,8.31A12,12,0,0,1,50,35.18c7-11.43,9.89-25,7.18-28.48A17.44,17.44,0,0,0,42.86,0a18.83,18.83,0,0,0-3.78.45C46.84,4.22,50.3,12.28,50.54,14.89Zm6.08,23.46c-4.07.84-6,.39-7-.19l-.45.29c-.57.34-1.47.89-1.69,4.25l.37.07.67.06a15.22,15.22,0,0,0,6.21-1.19C58.09,40.09,59.92,37.67,56.62,38.35Zm-29,3.13a1.53,1.53,0,0,0-.75-1.12l-.17-.07a4.89,4.89,0,0,0-2.17-.52h0a5.63,5.63,0,0,1-.58,0h-.24c-.72.56-1.75,1-4.3,1.51-4.56,1.16-1.87,2.53-.12,2.75,1.69.42,5.71.93,8.38-1.24C27.63,42.12,27.62,41.65,27.6,41.48Z"/>
      <path class="cls-1" d="M25.55,20.66a2.28,2.28,0,0,1-1.93.74,2.91,2.91,0,0,1-2.17-2.31h0c.07-.57,1.15-.87,2.42-.66a4.87,4.87,0,0,1,1.17.34A3.12,3.12,0,0,0,22.31,17a7.35,7.35,0,0,0-5.44,1.67c0,.17,0,.39.05.64a38.19,38.19,0,0,1-.08,8.47,8.42,8.42,0,0,0,2.4,6.72,7.14,7.14,0,0,0,3.84,2.2,14,14,0,0,1,.79-2.18c.17-.4.36-.83.53-1.3l.25-.65A17.86,17.86,0,0,0,26,25.34,26.06,26.06,0,0,0,25.55,20.66ZM47.21,26a19.85,19.85,0,0,1-.28-3.52c0-1.14.16-2.21.28-3.24.1-.82.17-1.6.21-2.37-2,.16-3.28.73-3.9,1.69a4.28,4.28,0,0,1,.87-.2c1.36-.17,2.36.22,2.48,1a1.68,1.68,0,0,1-.6,1.28,2.67,2.67,0,0,1-1.5.74l-.29,0A2.53,2.53,0,0,1,43,20.94c.17,3,2.39,7.06,3.49,9,.23.42.41.76.56,1.05A10,10,0,0,0,47.21,26Z"/>
    </g>
  </g>
</svg>