<svg viewBox="0 0 70.7 62.97" fill="currentColor">
  <title>React / React Native</title>
  <defs><style>.cls-1{fill:currentColor;}</style></defs>
  <g id="Layer_2" data-name="Layer 2">
    <g id="Main">
      <path stroke="none" class="cls-1" d="M41.92,31.49a6.59,6.59,0,1,1-13.17,0h0a6.59,6.59,0,1,1,13.17,0ZM49.72,0c-4,0-9.15,2.83-14.4,7.72C30.08,2.85,24.89.06,20.92.06a6.41,6.41,0,0,0-3.25.82c-4.05,2.33-5,9.61-2.87,18.75C5.83,22.4,0,26.82,0,31.49s5.86,9.12,14.86,11.87c-2.08,9.17-1.15,16.46,2.91,18.8A6.31,6.31,0,0,0,21,63c4,0,9.15-2.83,14.4-7.73,5.24,4.87,10.43,7.66,14.4,7.66a6.4,6.4,0,0,0,3.25-.81c4-2.33,5-9.61,2.87-18.75C64.87,40.6,70.7,36.16,70.7,31.49s-5.86-9.12-14.86-11.88C57.92,10.45,57,3.15,52.93.82A6.33,6.33,0,0,0,49.72,0Zm0,3.21v0a3.41,3.41,0,0,1,1.65.37c2,1.13,2.81,5.41,2.15,10.91-.16,1.36-.42,2.79-.74,4.25a69.33,69.33,0,0,0-9.15-1.58,71.87,71.87,0,0,0-6-7.21c4.69-4.36,9.1-6.75,12.1-6.76Zm-28.78.06c3,0,7.41,2.38,12.11,6.72a66.71,66.71,0,0,0-6,7.19,67.49,67.49,0,0,0-9.17,1.58c-.33-1.44-.57-2.84-.75-4.18-.68-5.5.16-9.78,2.11-10.92a4.43,4.43,0,0,1,1.65-.39Zm14.38,9a56.69,56.69,0,0,1,4,4.61c-1.3-.06-2.62-.1-4-.1s-2.7,0-4,.1a58.44,58.44,0,0,1,4-4.61ZM35.35,20c2.18,0,4.35.1,6.49.27C43,22,44.2,23.81,45.32,25.74s2.09,3.8,3,5.74c-.91,1.92-1.9,3.85-3,5.74S43.06,41,41.86,42.73c-2.15.18-4.32.29-6.51.29s-4.35-.11-6.49-.28C27.67,41,26.5,39.2,25.38,37.26s-2.09-3.8-3-5.73c.89-1.93,1.9-3.87,3-5.75s2.28-3.79,3.48-5.51C31,20.08,33.16,20,35.35,20Zm-10.71.75c-.71,1.11-1.41,2.25-2.07,3.42s-1.28,2.3-1.87,3.45a59.26,59.26,0,0,1-2-5.73c1.88-.44,3.87-.84,5.93-1.14Zm21.39,0c2,.3,4,.68,5.91,1.14-.53,1.86-1.2,3.77-1.95,5.69-.59-1.15-1.21-2.3-1.88-3.46S46.74,21.83,46,20.74Zm9,2c1.43.44,2.78.93,4.05,1.46,5.1,2.18,8.4,5,8.4,7.3s-3.31,5.12-8.41,7.29c-1.24.53-2.6,1-4,1.45a69.76,69.76,0,0,0-3.24-8.78,67.63,67.63,0,0,0,3.2-8.73Zm-39.46,0a69.19,69.19,0,0,0,3.24,8.78,69.15,69.15,0,0,0-3.2,8.73,40.3,40.3,0,0,1-4-1.48c-5.1-2.17-8.4-5-8.4-7.28s3.3-5.13,8.4-7.3C12.83,23.66,14.19,23.19,15.59,22.74ZM50,35.35a59.26,59.26,0,0,1,2,5.73A57.35,57.35,0,0,1,46,42.23c.71-1.1,1.42-2.24,2.08-3.41S49.4,36.5,50,35.35Zm-29.29,0c.59,1.16,1.2,2.31,1.88,3.47s1.37,2.27,2.08,3.36c-2.05-.3-4-.67-5.91-1.13.53-1.86,1.2-3.78,1.94-5.7Zm32.09,8.8a41.48,41.48,0,0,1,.75,4.2c.67,5.5-.16,9.78-2.11,10.92a3.19,3.19,0,0,1-1.66.38c-3,0-7.4-2.38-12.1-6.72a68.93,68.93,0,0,0,5.95-7.19,67.45,67.45,0,0,0,9.17-1.59Zm-34.85,0a69.37,69.37,0,0,0,9.15,1.57,69.68,69.68,0,0,0,6,7.21C28.39,57.37,24,59.77,21,59.77a3.56,3.56,0,0,1-1.63-.39c-2-1.12-2.81-5.41-2.15-10.91.16-1.36.42-2.78.74-4.24Zm13.43,1.89c1.3.06,2.62.1,4,.1s2.7,0,4-.1a60.31,60.31,0,0,1-4,4.61Q33.37,48.65,31.37,46.12Z"/>
    </g>
  </g>
</svg>