<svg viewBox="0 0 66.9 64.03" xmlns="http://www.w3.org/2000/svg" fill="currentColor">
  <title>Redux</title>
  <g id="Layer_2" data-name="Layer 2">
    <g id="Main">
      <path fill="currentColor" d="M32.06,0C22.08,0,14,11.54,14,25.74a31.49,31.49,0,0,0,5.65,18.61A4.87,4.87,0,0,0,23.51,50a4.41,4.41,0,0,0,.89.09,4.88,4.88,0,0,0,0-9.75,5.16,5.16,0,0,0-.79.07,26.82,26.82,0,0,1-4.08-14.7c0-10.94,5.74-20.17,12.53-20.17,5.73,0,10.7,6.59,12.11,15.22a38,38,0,0,1,5.89,2.27C49.11,10.12,41.4,0,32.06,0ZM30,20.88a4.88,4.88,0,0,0,0,9.75h0a4.87,4.87,0,0,0,4.37-2.73,26.09,26.09,0,0,1,14.58,4c9.55,5.73,14.74,15.74,11.34,21.87A9.08,9.08,0,0,1,54.43,58c-3.89,1-8.65.51-13.34-1.38a38.13,38.13,0,0,1-4.91,3.88A31.67,31.67,0,0,0,50.24,64a22,22,0,0,0,5.63-.7,14.47,14.47,0,0,0,9.25-6.86c5-9-.87-21.86-13.34-29.34A31.44,31.44,0,0,0,33.5,22.4,4.87,4.87,0,0,0,30,20.88ZM11.4,29.69C1.54,37.3-2.69,48.45,1.77,56.47A14.49,14.49,0,0,0,11,63.33a21.93,21.93,0,0,0,5.63.7A32.52,32.52,0,0,0,33,59.18,33.18,33.18,0,0,0,45.81,45.89a4.86,4.86,0,1,0-5.4-4.82,4.76,4.76,0,0,0,.49,2.09A27.88,27.88,0,0,1,30.18,54.41C24.2,58,17.58,59.32,12.47,58a9.08,9.08,0,0,1-5.83-4.18c-2.69-4.85,0-12.11,6-17.78A36.21,36.21,0,0,1,11.4,29.69Z"/>
    </g>
  </g>
</svg>