<svg viewBox="0 0 57.22 65.99" xmlns="http://www.w3.org/2000/svg" fill="currentColor">
  <title>Sequelize</title>
  <g id="Layer_2" data-name="Layer 2">
    <g id="Main">
      <path fill="currentColor" d="M28.68,0,0,16.48v33L28.68,66,57.22,49.51v-33Zm-.07,9.58L49,21.2V44.79L28.61,56.41,8.4,44.91,8.18,21.2Zm.13,1.62-8,4.65v.7l7.17,4.19v1.33L29,21.43l.7.41v-.92l7.06-4.07c0-.34,0-.7,0-1ZM18.53,16.88c-2.67,1.52-5.31,3.09-8,4.65v9.36q4,2.28,8,4.59l1.11-.64v-8l6.85-4V21.53ZM39,17.12l-7.95,4.59v.93l7.25,4.24v8.43l.7.41,8-4.59V21.77ZM29,23l-8,4.59V37l8,4.59,8-4.6V27.67Zm-17,10.23L10.58,34v9.35l8,4.6,1.11-.64v-8l1.3-.75-1.3-.76V36.43l-1.11.64Zm33.68.24L39,37.31l-.7-.41v.92l-1.36.78,1.36.79v8.43l.7.41,8-4.6V34.28ZM22.32,39.37,21,40.12v9.42l8,4.59,8-4.59V40.18l-1.35-.79L29,43.21Z"/>
    </g>
  </g>
</svg>