<svg xmlns="http://www.w3.org/2000/svg" viewBox="0 0 62 68">
  <g id="Layer_2" data-name="Layer 2">
    <g id="Main">
      <path d="M56.8,13.3,36.2,1.4a10.4,10.4,0,0,0-10.4,0L5.2,13.3a10.5,10.5,0,0,0-5.2,9V45.7a10.5,10.5,0,0,0,5.2,9L25.8,66.6a10.4,10.4,0,0,0,10.4,0L56.8,54.7a10.5,10.5,0,0,0,5.2-9V22.3A10.5,10.5,0,0,0,56.8,13.3Zm3.7,32.4a8.9,8.9,0,0,1-4.4,7.7L35.5,65.3A8.9,8.9,0,0,1,31,66.5a9.2,9.2,0,0,1-4.5-1.2L6,53.4a8.8,8.8,0,0,1-4.5-7.7V22.3A8.8,8.8,0,0,1,6,14.6L26.5,2.7a9,9,0,0,1,9,0L56.1,14.6a8.9,8.9,0,0,1,4.4,7.7Z" fill="transparent" stroke="none"/>
      <path d="M56.1,14.6,35.5,2.7a9,9,0,0,0-9,0L6,14.6a8.8,8.8,0,0,0-4.5,7.7V45.7A8.8,8.8,0,0,0,6,53.4L26.5,65.3A9.2,9.2,0,0,0,31,66.5a8.9,8.9,0,0,0,4.5-1.2L56.1,53.4a8.9,8.9,0,0,0,4.4-7.7V22.3A8.9,8.9,0,0,0,56.1,14.6Z" fill="currentColor" stroke-width="3" />
    </g>
  </g>
</svg>