<svg xmlns="http://www.w3.org/2000/svg" viewBox="0 0 170 170"><g id="Layer_2" data-name="Layer 2"><g id="Main"><path d="M85,7.3A77.7,77.7,0,1,1,7.3,85,77.8,77.8,0,0,1,85,7.3Z" fill="currentColor"/><path d="M169.9,81.7c.1,1.1.1,2.2.1,3.3a70.3,70.3,0,0,1-.4,8l-3.4-.3c-.3,2.6-.7,5.1-1.1,7.6l3.4.7a73.8,73.8,0,0,1-1.9,7.8l-3.3-1c-.8,2.5-1.6,4.9-2.6,7.3l3.3,1.3c-1,2.5-2.1,5-3.3,7.3l-3.2-1.6a55.1,55.1,0,0,1-3.8,6.7l3,1.9a78.5,78.5,0,0,1-4.7,6.6l-2.7-2.2a70.5,70.5,0,0,1-5.1,5.8l2.6,2.5a75.4,75.4,0,0,1-5.8,5.5l-2.3-2.6-6,4.8,2,2.8a70.1,70.1,0,0,1-6.7,4.4l-1.8-3c-2.2,1.3-4.5,2.5-6.8,3.6l1.5,3.2-7.5,3-1.2-3.3c-2.4.9-4.8,1.6-7.3,2.3l.8,3.4c-2.6.6-5.2,1.1-7.9,1.5l-.5-3.4c-2.5.4-5.1.6-7.7.8l.2,3.5h-8v-3.4c-2.6-.1-5.1-.4-7.6-.7l-.5,3.5c-2.7-.4-5.3-.9-7.9-1.5l.8-3.4a49.1,49.1,0,0,1-7.5-2.1l-1.1,3.4-7.5-2.9,1.4-3.2c-2.3-1.1-4.6-2.2-6.8-3.5l-1.8,3.1c-2.3-1.3-4.6-2.8-6.8-4.3l2-2.9c-2.1-1.5-4.1-3-6.1-4.7L30.2,150c-2-1.7-4-3.5-5.9-5.4l2.5-2.5a70.5,70.5,0,0,1-5.1-5.8L19,138.6c-1.7-2.1-3.3-4.3-4.8-6.5l2.9-2a71.6,71.6,0,0,1-3.9-6.6l-3.1,1.7a69.7,69.7,0,0,1-3.5-7.3l3.2-1.3a63.4,63.4,0,0,1-2.6-7.3l-3.4,1.1c-.7-2.6-1.4-5.2-2-7.8l3.4-.7c-.5-2.5-.9-5-1.2-7.6l-3.5.4c-.3-2.7-.4-5.4-.5-8H3.5V85c0-2.1.1-4.1.2-6.1L.2,78.6a76,76,0,0,1,1-8l3.4.6c.5-2.5,1-5,1.7-7.5l-3.4-.9a69.1,69.1,0,0,1,2.5-7.7l3.3,1.3a75.6,75.6,0,0,1,3-7.1L8.6,47.7a68,68,0,0,1,3.8-7l3,1.8c1.4-2.2,2.8-4.3,4.3-6.4L16.9,34c1.6-2.1,3.4-4.2,5.2-6.2l2.6,2.4c1.7-1.9,3.5-3.7,5.4-5.5l-2.4-2.5c2-1.8,4.1-3.6,6.2-5.2L36,19.8c2.1-1.5,4.2-3,6.4-4.3l-1.8-3c2.3-1.4,4.6-2.7,7-3.9l1.6,3.2a62.1,62.1,0,0,1,7-3.1L55,5.4c2.5-.9,5.1-1.7,7.7-2.4l.9,3.3c2.4-.6,5-1.2,7.5-1.6l-.6-3.5c2.6-.4,5.3-.8,8-1l.3,3.5L85,3.5h1.5V0c2.7.1,5.4.2,8,.5L94.2,4c2.5.3,5.1.7,7.6,1.2l.7-3.4a74.4,74.4,0,0,1,7.8,2l-1.1,3.3c2.5.8,4.9,1.7,7.3,2.7l1.3-3.2c2.5,1,4.9,2.2,7.3,3.4l-1.7,3.1a55.2,55.2,0,0,1,6.6,4l2-2.9a71.1,71.1,0,0,1,6.5,4.7l-2.2,2.7c2,1.7,3.9,3.4,5.7,5.2l2.5-2.5a74.1,74.1,0,0,1,5.4,5.8l-2.6,2.3c1.6,2,3.2,4,4.6,6.1l2.9-2a70.3,70.3,0,0,1,4.3,6.8L156,45.1a62.4,62.4,0,0,1,3.5,6.8l3.2-1.4a77.1,77.1,0,0,1,2.9,7.5l-3.3,1.1c.8,2.5,1.5,4.9,2.1,7.5l3.4-.8a68.6,68.6,0,0,1,1.4,7.9l-3.4.4c.3,2.6.5,5.1.6,7.7ZM162.7,85A77.7,77.7,0,1,0,85,162.7,77.8,77.8,0,0,0,162.7,85Z" fill="#1b1b21"/></g></g></svg>