<svg xmlns="http://www.w3.org/2000/svg" viewBox="0 0 62 68"><g id="Layer_2" data-name="Layer 2"><g id="Main"><path d="M60,22.9V45.2a9.7,9.7,0,0,1-4.8,8.4L35.9,64.7a9.9,9.9,0,0,1-9.8,0L6.8,53.6A9.7,9.7,0,0,1,2,45.2V22.9a9.9,9.9,0,0,1,4.8-8.5L26.1,3.3a9.9,9.9,0,0,1,9.8,0L55.2,14.4A9.9,9.9,0,0,1,60,22.9Z" fill="currentColor"/><path d="M60,45.2V22.9a9.9,9.9,0,0,0-4.8-8.5L35.9,3.3a9.9,9.9,0,0,0-9.8,0L6.8,14.4A9.9,9.9,0,0,0,2,22.9V45.2a9.7,9.7,0,0,0,4.8,8.4L26.1,64.7a9.9,9.9,0,0,0,9.8,0L55.2,53.6A9.7,9.7,0,0,0,60,45.2ZM56.1,12.7A11.7,11.7,0,0,1,62,22.9V45.2a11.6,11.6,0,0,1-5.9,10.1L36.8,66.4A11,11,0,0,1,31,68a11.4,11.4,0,0,1-5.9-1.6L5.8,55.3A11.8,11.8,0,0,1,0,45.2V22.9A11.8,11.8,0,0,1,5.8,12.7L25.1,1.6A11.4,11.4,0,0,1,31,0a11,11,0,0,1,5.8,1.6Z" fill="#1b1b21"/></g></g></svg>