<svg viewBox="0 0 51.14 51.14" xmlns="http://www.w3.org/2000/svg" fill="currentColor">
  <title>TypeScript</title>
  <path stroke="none" fill="currentColor" d="M2.4,0A2.39,2.39,0,0,0,0,2.4V48.75a2.39,2.39,0,0,0,2.4,2.39H48.75a2.39,2.39,0,0,0,2.39-2.39V2.4A2.39,2.39,0,0,0,48.75,0Zm37,20.78a23.58,23.58,0,0,1,3.46.23,14.15,14.15,0,0,1,2.79.73V27a8,8,0,0,0-1.37-.77,10.81,10.81,0,0,0-1.53-.56,11.55,11.55,0,0,0-3-.42,7.91,7.91,0,0,0-1.75.18,4.28,4.28,0,0,0-1.32.52,2.56,2.56,0,0,0-.84.79,1.94,1.94,0,0,0-.3,1.05,2,2,0,0,0,.33,1.12,3.89,3.89,0,0,0,1,.95,9,9,0,0,0,1.48.87c.58.29,1.24.59,2,.89a21.23,21.23,0,0,1,2.7,1.34,9.58,9.58,0,0,1,2,1.6,6.14,6.14,0,0,1,1.31,2,8.1,8.1,0,0,1-.34,6.2,6.35,6.35,0,0,1-2.15,2.31,9.18,9.18,0,0,1-3.17,1.27,18.12,18.12,0,0,1-3.82.39,21.56,21.56,0,0,1-3.92-.35,12.15,12.15,0,0,1-3.22-1V39.74a10.72,10.72,0,0,0,6.9,2.56,7.89,7.89,0,0,0,1.86-.19,4.23,4.23,0,0,0,1.32-.54,2.29,2.29,0,0,0,.8-.81,2.17,2.17,0,0,0-.16-2.32,4.43,4.43,0,0,0-1.14-1.06,12.52,12.52,0,0,0-1.72-1c-.71-.32-1.43-.63-2.15-.93a10.9,10.9,0,0,1-4.37-3,6.54,6.54,0,0,1-1.44-4.27,6.85,6.85,0,0,1,.78-3.37,6.7,6.7,0,0,1,2.14-2.32,9.3,9.3,0,0,1,3.14-1.34A15.41,15.41,0,0,1,39.4,20.78Zm-32.21.4H27.57v4.61H20.26V46.35H14.47V25.79H7.19Z"/>
</svg>
